<svg version="1.1" id="home-first" xmlns="http://www.w3.org/2000/svg" xmlns:xlink="http://www.w3.org/1999/xlink" x="0px" y="0px" viewBox="0 0 2167.6 2361.2" style="enable-background:new 0 0 2167.6 2361.2;" xml:space="preserve"><g id="Warstwa_2"><g id="Warstwa_1-2"><path class="st0 third-cloud" d="M2167.6,1370.2c-7.5-99.1-93.9-173.4-193-165.9c-11.7,0.9-23.3,2.9-34.6,6c0-0.5,0-1.1,0-1.6c-0.1-72.7-59-131.6-131.7-131.5c-50.4,0-96.3,28.8-118.3,74.1c-55.5-47-138.7-40.2-185.7,15.4c-5.3,6.2-10,12.9-14,20c-86.3-37.2-186.4,2.5-223.6,88.8c-9.2,21.3-13.9,44.2-13.9,67.4c0,9.2,0.7,18.3,2.2,27.3L2167.6,1370.2z"></path><path class="st0 fourth-cloud" d="M1330.3,625.2c5.8-57.8,54.4-101.7,112.4-101.8h0.1c2.2-40.9,37-72.3,77.9-70.1c26.9,1.4,50.9,17.3,62.7,41.5c54.2-35.1,126.5-21.1,163.6,31.8c47.1-12.9,95.8,14.8,108.6,62c3.3,11.9,4,24.4,2.1,36.7L1330.3,625.2z"></path><path class="st6 big-circle" d="M474.3,459.7h53.6l15.9-64c15.9-4.1,31.2-10.6,45.2-19.2l50.3,33.9l37.9-37.9l-32-53.1c7.9-13.3,13.9-27.7,17.8-42.7l61.2-12v-53.6l-60.3-15c-3.9-16.5-10.3-32.3-19.1-46.8l34.4-51.1l-37.9-37.9l-53.2,32c-14.4-8.7-30-15.2-46.3-19.2l-11.1-57h-53.6L463.1,73c-16.1,3.9-31.5,10.1-45.7,18.6l-51.7-34.8l-37.9,37.9l32.3,53.5c-9.1,15-15.8,31.3-19.8,48.3l-59.5,11.6v53.6l60.5,15c4.1,15.5,10.4,30.4,18.7,44.1l-34.2,50.9l37.9,37.9l53.4-32.2c13.9,8.3,29,14.5,44.7,18.4L474.3,459.7z M390.2,236.8c0-60.6,49.2-109.8,109.8-109.8c60.6,0,109.8,49.2,109.8,109.8c0,60.6-49.2,109.8-109.8,109.8c0,0,0,0,0,0C439.4,346.6,390.2,297.5,390.2,236.8z"></path><path class="st0 medium-circle" d="M866.8,519.7l34.7-14.9l-7.6-45.8c9.2-7.1,17.3-15.5,24-25l42,7.9l14-35.1l-35.5-25.5c1.4-10.8,1.3-21.8-0.3-32.6l36.3-24.8L959.5,289l-43.2,7.1c-7.1-9.6-15.7-18-25.4-25l8-42.7l-35.1-14L838.3,250c-11.7-1.6-23.6-1.5-35.3,0.5l-23.1-33.8l-34.7,14.9l6.7,40.7c-9.3,7-17.6,15.3-24.4,24.8l-43.1-8.1l-14,35.1l35.8,25.7c-1.7,12.2-1.5,24.7,0.6,36.8l-35.3,24.1l14.9,34.7l43.4-7.1c7,8.9,15.2,16.8,24.4,23.3l-8,42.5l35.1,14l25.6-35.7c11.3,1.5,22.8,1.3,34.1-0.5L866.8,519.7z M750.3,398.8c-16.9-39.3,1.2-84.8,40.5-101.7c39.3-16.9,84.8,1.2,101.7,40.5c16.9,39.3-1.2,84.8-40.5,101.7c0,0,0,0,0,0C812.7,456.2,767.2,438,750.3,398.8z"></path><path class="st0 small-circle-one" d="M815.6,210.4l23.9-10.3l-5.2-31.6c6.3-4.9,11.9-10.7,16.5-17.3l29,5.4l9.7-24.2L865,114.9c1-7.5,0.9-15-0.2-22.5l25-17.1l-10.3-24l-29.8,4.9c-4.9-6.6-10.8-12.4-17.5-17.2l5.5-29.4L813.5,0l-17.6,24.5c-8.1-1.1-16.3-1-24.3,0.3L755.7,1.5l-23.9,10.3l4.6,28.1c-6.4,4.8-12.1,10.6-16.8,17.1l-29.8-5.6l-9.7,24.2l24.7,17.7c-1.2,8.4-1.1,17,0.4,25.4l-24.3,16.6l10.3,23.9l29.9-4.9c4.8,6.2,10.5,11.6,16.8,16.1l-5.5,29.3l24.2,9.6l17.7-24.6c7.8,1,15.7,0.9,23.5-0.4L815.6,210.4z M735.3,127.1c-11.6-27.1,0.9-58.5,27.9-70.1c27.1-11.6,58.5,0.9,70.1,27.9c11.6,27.1-0.9,58.4-27.9,70.1C778.3,166.6,746.9,154.1,735.3,127.1C735.3,127.1,735.3,127.1,735.3,127.1L735.3,127.1z"></path><path class="st6 small-circle-two" d="M236.6,237.6l23.9-10.3l-5.2-31.6c6.3-4.9,11.9-10.7,16.5-17.3l29,5.4l9.6-24.2L286,142.1c1-7.5,0.9-15-0.2-22.5l25-17.1l-10.3-23.9l-29.8,4.9c-4.9-6.6-10.8-12.4-17.5-17.2l5.5-29.4l-24.2-9.7l-17.6,24.5c-8.1-1.1-16.3-1-24.3,0.3l-15.9-23.3L152.7,39l4.6,28.1c-6.4,4.8-12.1,10.6-16.8,17.1l-29.8-5.6l-9.7,24.2l24.7,17.7c-1.2,8.4-1,17,0.4,25.4l-24.3,16.6l10.3,23.9l29.9-4.9c4.8,6.2,10.5,11.6,16.8,16.1l-5.5,29.3l24.2,9.6l17.7-24.6c7.8,1,15.7,0.9,23.5-0.4L236.6,237.6z M156.3,154.3c-11.6-27.1,0.9-58.5,27.9-70.1s58.5,0.9,70.1,27.9s-0.9,58.5-27.9,70.1c0,0,0,0,0,0C199.3,193.8,167.9,181.3,156.3,154.3C156.3,154.3,156.3,154.3,156.3,154.3L156.3,154.3z"></path><g class="paper-icon"><path class="st1" d="M283.5,142.2c11.9-25.5,15-72,15-72l84.1,2.5c-0.4,4.3-14,166.7-54.6,82.2l-74.3-1.7c0,0,5.3,24.8,24.3,25.2c24.6,0.6,72.2,0.8,72.2,0.8"></path><line class="st1" x1="315.7" y1="95.2" x2="358.5" y2="96.7"></line><line class="st1" x1="312.5" y1="114.6" x2="352.6" y2="116"></line><line class="st1" x1="307.4" y1="134.1" x2="330.3" y2="134.9"></line></g><g class="computer-icon"><path class="st19" d="M220.4,346l-5.5-63.8c-0.2-2.4-2.3-4.1-4.7-3.9c0,0,0,0,0,0l-105.1,9c-2.4,0.2-4.1,2.3-3.9,4.7c0,0,0,0,0,0l5.5,63.8"></path><path class="st19" d="M171.4,359.5l0.1,1.7c0.1,1.4-0.9,2.6-2.3,2.7l-9.1,0.8c-1.4,0.1-2.6-0.9-2.7-2.2c0,0,0,0,0,0l-0.1-1.7l-58.1,5l0.8,9.1c0.2,2.5,2.4,4.4,4.9,4.2c0,0,0.1,0,0.1,0l121.3-10.5c2.5-0.2,4.4-2.4,4.1-4.9c0,0,0,0,0,0l-0.8-9.1L171.4,359.5z"></path><polyline class="st19" points="118.9,318.2 125.2,331.7 129,317.4 135.3,330.9 139.1,316.5 "></polyline><polyline class="st19" points="145.5,315.9 151.8,329.4 155.6,315 161.9,328.6 165.7,314.2 "></polyline><polyline class="st19" points="172.2,313.6 178.4,327.1 182.2,312.8 188.5,326.3 192.3,311.9 "></polyline><line class="st19" x1="200.3" y1="325.3" x2="200.3" y2="325.3"></line></g><g class="question-icon"><path class="st1" d="M329,358.8c-16.6-3.9-36-23.5-36-48.2c0-25.8,21.8-47.6,44.9-47.6h42.4c23.1,0,44,22.1,44,47.9c0,25.5-20.9,47.9-44,47.9h-13.4L329,391.3V358.8z"></path><path class="st1" d="M355.7,290.1h-21.8c-0.5,0-0.9,0.4-0.8,0.9v21.2c0,0.5,0.4,0.9,0.8,0.9c0,0,0,0,0,0h10.8c0,5.8,0.2,13.4-6.8,13.4c-0.5,0-0.9,0.4-0.8,0.9c0,0,0,0,0,0v7.6c0,0.5,0.4,0.9,0.8,0.9c0,0,0,0,0,0c14.4,0,18.6-10.9,18.6-25.6V291C356.6,290.5,356.2,290.1,355.7,290.1C355.7,290.1,355.7,290.1,355.7,290.1z"></path><path class="st1" d="M387.6,290.1h-21.8c-0.5,0-0.9,0.4-0.8,0.9v21.2c0,0.5,0.4,0.9,0.8,0.9c0,0,0,0,0,0h10.8c0,5.8,0.2,13.4-6.8,13.4c-0.5,0-0.9,0.4-0.8,0.9c0,0,0,0,0,0v7.6c0,0.5,0.4,0.9,0.8,0.9c0,0,0,0,0,0c14.4,0,18.6-10.9,18.6-25.6V291C388.4,290.5,388.1,290.1,387.6,290.1z"></path></g><g class="brain-icon"><path class="st19" d="M130.1,148.6c2-11.4,26.8-14.4,24.5,9.5c-2.8,30.1-33.5,18.8-33.5,18.8L99.9,51.4c0,0,21.6-19.6,34.3,13.9c0,0,14-0.3,18.6,20c0,0,22.7,13.6,9.3,37.6c-4.6,8.3-12.5,5.3-17.6,2.1"></path><path class="st19" d="M63.7,138.4c-20.6-18.3-2.6-37.6-2.6-37.6c-2.3-20.7,11-25,11-25c2-36,27.8-24.3,27.8-24.3l21.2,125.5c-11.9,10.1-27.5,12.2-36.3-2.9c-3.1-5-3.8-11-2-16.6"></path><path class="st19" d="M154.6,158.1c0,0,19.1-11.5,7.5-35.2"></path><path class="st19" d="M108.2,100.3c0,0,13-11.8,23.2-7"></path><path class="st19" d="M134.9,80.5c-2.6,5-5.9,14.6-0.9,24.9"></path><path class="st19" d="M84.4,173.1"></path><path class="st19" d="M76.6,120.2c0,0-34.6,22.4,7.8,52.9"></path><path class="st19" d="M72.1,75.8c0,0,10.2-1.3,11.6,12.9"></path><path class="st19" d="M83.4,100c0,0,17.3,5.3,15.8,20.6"></path><path class="st19" d="M100.1,141.4c0,0-11.3,12.3,0.8,21.4"></path></g><g class="video-icon"><path class="st1" d="M288.5,491l16.2-17.4c1-1.1,2.8-1.2,3.9-0.1c0.4,0.4,0.7,1,0.8,1.6l4.6,28.9c0.2,1.5-0.8,2.9-2.3,3.2c-0.6,0.1-1.2,0-1.8-0.3l-20.8-11.5c-1.3-0.8-1.8-2.4-1-3.8C288.2,491.3,288.3,491.1,288.5,491z"></path><rect x="256.4" y="443.5" transform="matrix(0.9875 -0.1575 0.1575 0.9875 -73.4889 53.9419)" class="st1" width="94.5" height="94.5"></rect><line class="st1" x1="346" y1="456" x2="252.7" y2="470.8"></line><line class="st1" x1="354.7" y1="510.7" x2="261.4" y2="525.5"></line><line class="st1" x1="334.3" y1="444.6" x2="335.3" y2="451.1"></line><line class="st1" x1="321.4" y1="446.7" x2="322.4" y2="453.1"></line><line class="st1" x1="308.5" y1="448.7" x2="309.6" y2="455.2"></line><line class="st1" x1="295.7" y1="450.8" x2="296.7" y2="457.2"></line><line class="st1" x1="282.8" y1="452.8" x2="283.8" y2="459.3"></line><line class="st1" x1="269.9" y1="454.9" x2="271" y2="461.3"></line><line class="st1" x1="257" y1="456.9" x2="258.1" y2="463.4"></line><line class="st1" x1="349.3" y1="518.1" x2="350.3" y2="524.6"></line><line class="st1" x1="336.4" y1="520.2" x2="337.5" y2="526.6"></line><line class="st1" x1="323.5" y1="522.2" x2="324.6" y2="528.7"></line><line class="st1" x1="310.7" y1="524.3" x2="311.7" y2="530.7"></line><line class="st1" x1="297.8" y1="526.3" x2="298.8" y2="532.8"></line><line class="st1" x1="284.9" y1="528.4" x2="286" y2="534.8"></line><line class="st1" x1="272.1" y1="530.4" x2="273.1" y2="536.9"></line></g><g class="generator"><path class="st2" d="M148.8,1271.7c0.6,1,0.9,2.1,0.9,3.2l-18.6,59.6c-2.7,7.8-7.1,18-15.9,18s-13.1-7.8-15.9-18l-17.7-59.6c0-1.1,0.3-2.2,0.9-3.2H148.8z"></path><path class="st3" d="M71.8,1271.7c0.6,1,0.9,2.1,0.9,3.2l-18.6,59.6c-2.7,7.8-7.1,18-15.9,18s-13.1-7.8-15.9-18l-17.7-59.6c0-1.1,0.3-2.2,0.9-3.2L71.8,1271.7z"></path><path class="st3" d="M416.3,1271.7c0.6,1,0.9,2.1,0.9,3.2l-18.5,59.6c-2.7,7.8-7.1,18-15.9,18s-13.1-7.8-15.9-18l-17.7-59.6c0-1.1,0.3-2.2,0.9-3.2H416.3z"></path><path class="st2" d="M576.3,1271.7c0.6,1,0.9,2.1,0.9,3.2l-18.5,59.6c-2.7,7.8-7.1,18-15.9,18s-13.1-7.8-15.9-18l-17.7-59.6c0-1.1,0.3-2.2,0.9-3.2H576.3z"></path><path class="st4" d="M85.3,1287.2l-3.7-12.4c0-1.1,0.3-2.2,0.9-3.2h66.2c0.6,1,0.9,2.1,0.9,3.2l-3.9,12.4H85.3z"></path><polygon class="st5" points="230.1,509.2 377.2,509.2 339.1,611.2 339.1,693.2 275.1,693.2 275.1,611.2 "></polygon><polygon class="st3" points="230.1,509.2 377.2,509.2 339.1,611.2 339.1,693.2 275.1,693.2 275.1,611.2 "></polygon><polygon class="st5" points="341.8,509.2 356.8,509.2 318.7,611.2 318.7,693.2 303.7,693.2 303.7,611.2 "></polygon><path class="st4" d="M512.8,1287.2l-3.7-12.4c0-1.1,0.3-2.2,0.9-3.2h66.2c0.6,1,0.9,2.1,0.9,3.2l-3.8,12.4H512.8z"></path><rect y="675.2" class="st3" width="441.1" height="599.6"></rect><rect x="440.1" y="675.2" class="st2" width="138" height="599.6"></rect><path class="st2" d="M47.9,1172.1c0,2.5,2,4.5,4.5,4.5l0,0h79.5c2.5,0,4.5-2,4.5-4.5l0,0l0,0c0-2.5-2-4.5-4.5-4.5l0,0H52.4C49.9,1167.6,47.9,1169.6,47.9,1172.1L47.9,1172.1z"></path><path class="st2" d="M47.9,1204.2c0,2.5,2,4.5,4.5,4.5l0,0h79.5c2.5,0,4.5-2,4.5-4.5l0,0l0,0c0-2.5-2-4.5-4.5-4.5H52.4C49.9,1199.7,47.9,1201.7,47.9,1204.2z"></path><path class="st2" d="M47.9,1140c0,2.5,2,4.5,4.5,4.5l0,0h79.5c2.5,0,4.5-2,4.5-4.5l0,0l0,0c0-2.5-2-4.5-4.5-4.5l0,0H52.4C49.9,1135.5,47.9,1137.5,47.9,1140L47.9,1140z"></path></g><path class="st7" d="M514.6,279.8L390.8,828c-2.6,11.3-13.8,18.4-25.1,15.9s-18.4-13.8-15.9-25.1l0,0L482,233.3"></path><path class="st8" d="M500.1,221.9L500.1,221.9c1.9,0,3.8,0.4,5.6,1.1L828,353.2c7.7,3.1,11.4,11.9,8.3,19.5c-3.1,7.7-11.9,11.4-19.5,8.3L494.5,250.8c-7.7-3.1-11.4-11.8-8.3-19.5C488.4,225.6,493.9,221.9,500.1,221.9 M500.1,214.9c-12.2,0-22,9.8-22,22c0,9,5.4,17.1,13.8,20.4l322.3,130.1c11.2,4.6,24.1-0.7,28.7-12c4.6-11.2-0.7-24.1-12-28.7c-0.1,0-0.2-0.1-0.3-0.1L508.3,216.5C505.7,215.5,502.9,214.9,500.1,214.9z"></path><circle class="st1" cx="502.5" cy="237.9" r="8"></circle><circle class="st9" cx="369.8" cy="820.1" r="8"></circle><circle class="st1" cx="822.4" cy="367.1" r="8"></circle><path class="st10" d="M1178.1,1157.6l53-323c0,0,105.4,173.2,97,190.4c-5,10.3-45.8,107.3-77.8,183.7l30.2,43.2l140.6-196.8l-92.9-322.4h-233.9l21.9,426.8l7.9,262.1h54.1V1157.6z"></path><path class="st11" d="M1210.7,793.4l116.3,220.5C1326.9,1013.9,1231.4,776.1,1210.7,793.4z"></path><path class="st12" d="M949.7,309.4c0,0-185.2-122.9-208.8-142.2c-21.8-20.1-23.6-11.1-23.6-11.1c-18.6-17.6-33.5-10.5-46.1-4.4c-33.8,16.2,47,38.6,47,38.6s134.7,102.4,181.6,149.2c28.2,16.1,59.5,29.7,90,41l14-64.4L949.7,309.4z"></path><path class="st13" d="M1326.7,533.5c-2.8,2.5-2.1,6.6,0,11.3C1326.7,541,1326.7,537.2,1326.7,533.5z"></path><path class="st13" d="M1368.4,381.8c-15.1-11.3-118.6-39.5-159.9-45.2s-118.3-11.3-118.3-11.3l-107.2-11.9l-14.3,58.8c72.8,26.2,122.3,47.6,122.3,47.6l-2.1,329.3c0,0,214.5-5.6,246.5-13.2c-4.2-58.5-10.3-210.8-5.6-257.8c10.2,1.4,27.5,14.5,45.4,30.7l47.8-51.5C1395.6,411.7,1369.2,386,1368.4,381.8z"></path><path class="st14" d="M1326.7,533.5c-2.8,2.5-2.1,6.6,0,11.3C1326.7,541,1326.7,537.2,1326.7,533.5z"></path><path class="st14" d="M1100.7,748.9l13.8-341.3c0,0-67.7-22.2-140.1-49.7l-5.8,14.4c72.8,26.2,122.3,47.6,122.3,47.6l-2.1,329.3L1100.7,748.9z"></path><line class="st15" x1="1394.4" y1="581" x2="1368.4" y2="582.4"></line><path class="st12" d="M1306.2,561"></path><path class="st16" d="M1284.8,179.1c-5.5-2-15.7-19.7-10.9-29s7.3-26.2-3.9-29s-15.8-3.5-22.2-14.9s-11-20.2-20.8-16.9s-23,14-41.8-0.3s-33.6-8.4-32.7,1s-7.5,11.7-32.5,24.3s11,43.4,11,43.4l7.6,27.8l87.4,94.2c0,0,34.6-38,53.3-63.1S1290.3,181.1,1284.8,179.1z M1218,246.8c-31.7-4.6-24.6-53.9,7.2-49.2S1249.7,251.4,1218,246.8z"></path><path class="st12" d="M1102.7,240.9c8.3-17.4,25.1-68.4,18-91.5c2.6-10.1,65,0.2,65,0.2l25.3,17.6l-5,34.1l36.3-1.7l-1.2,67.2l4.5,88.2c-1.7,0.5-49.4,31.5-78.8-6.3l1.6-32c0,0-34.1-5-41.2-20s-11.9-45.9-11.9-45.9S1094.3,258.3,1102.7,240.9z"></path><path class="st16" d="M1159.5,145.7c0,0,51.6,4.7,48.8,39.7s-11.3,46.5-7.9,47.6c12.2,4.1,17-30.6,34.3-21.8c5.8,3,4,20.4-13.5,44.6c-13.1,18.1,19.7,11,19.7,11s19.5-33.2,22.1-43.2s-25-83.8-25-83.8S1169.3,126.2,1159.5,145.7z"></path><path class="st3" d="M1071.2,2362.8V398.5h-19.5l-1.2,1964.9C1057.3,2363.2,1064.3,2363,1071.2,2362.8z"></path><polygon class="st3" points="1068.4,576.5 1311.5,570.2 1311.5,589.7 1068.4,589.7 "></polygon><polygon class="st3" points="1068.4,763.8 1311.5,758.9 1311.5,777.4 1068.4,777.4 "></polygon><polygon class="st3" points="1068.4,951.1 1311.5,947.7 1311.5,965 1068.4,965 "></polygon><polygon class="st3" points="1068.4,1138.5 1311.5,1136.4 1311.5,1152.7 1068.4,1152.7 "></polygon><polygon class="st3" points="1068.4,1325.8 1311.5,1325.1 1311.5,1340.3 1068.4,1340.3 "></polygon><polygon class="st3" points="1068.4,1513.5 1311.5,1514.2 1311.5,1528.3 1068.4,1528.3 "></polygon><polygon class="st3" points="1068.4,1701.5 1311.5,1703.7 1311.5,1716.7 1068.4,1716.7 "></polygon><polygon class="st3" points="1066.4,1513.3 1309.5,1507.1 1309.5,1526.6 1066.4,1526.6 "></polygon><polygon class="st3" points="1066.4,1700.7 1309.5,1695.8 1309.5,1714.3 1066.4,1714.3 "></polygon><polygon class="st3" points="1066.4,1888 1309.5,1884.5 1309.5,1901.9 1066.4,1901.9 "></polygon><polygon class="st3" points="1066.4,2075.3 1309.5,2073.3 1309.5,2089.6 1066.4,2089.6 "></polygon><path class="st3" d="M1322,2363.2V398.5h-19.5l-1.2,1964C1308.1,2362.7,1315.1,2362.9,1322,2363.2z"></path><path class="st12" d="M1422.9,457.5l-47.8,51.5c31.8,28.7,65.6,67.1,65.6,67.1l-79.7-40.8c0.4,1-28-20.5-32.2-25.7c-4.2,5.4-21.9,4.6-30.7,4.6c-9.5,0.8,0.3,13.8,0.3,13.8s-0.8,32.2,0,36s5.4,3.8,14.2,4.6s38,6.7,38,6.7l9,2.6c23.6,11.9,77.3,38.9,90.4,43.3c24.5,7.5,30.1-15,39.5-26.3C1492.8,578.3,1456.5,513.8,1422.9,457.5z"></path><path class="st10" d="M1330,1341c4.3-23.3-35.5-49.4-66.3-65.8l16.7-23.3l-30.2-43.2c-21.6,51.5-39.2,93.7-39.2,93.7S1305.9,1326.8,1330,1341z"></path><path class="st10" d="M1036.7,1518h13.8l127.6-6.2v-91.2H1124l1.4,47.9C1091,1479,1049.9,1495.6,1036.7,1518z"></path><path class="st17 levitate one" d="M1512.9,692c30.2,30.4-6.7,67,23.4,97.4s67.1-6.3,97.2,24.1s-6.7,67,23.4,97.4s67.1-6.3,97.2,24.1s-6.7,67,23.4,97.4"></path><circle class="st18 levitate two" cx="1668.3" cy="135.2" r="87"></circle><polygon class="st17 levitate three" points="726.4,716.5 785.3,931.8 574.9,877.1 "></polygon><path class="st0 second-cloud" d="M1024.7,1586.2c30.1-82.3-12.3-173.5-94.7-203.5c-71.6-26.1-151.6,2.3-190.7,67.7c-53.4-69-135.7-109.4-223-109.4c-106.7,0-199.6,59.3-247.5,146.6c-54.2-39-129.7-26.6-168.7,27.6c-14.8,20.6-22.7,45.2-22.7,70.6c0,0.1,0,0.3,0,0.4L1024.7,1586.2z"></path><path class="st6 first-cloud" d="M1884.8,1757.5c-22.7-101-113-176.5-220.8-176.5c-20.5,0-41,2.8-60.8,8.3c0-0.7,0-1.3,0-2c0-91.5-74.2-165.6-165.7-165.6c-63.4,0-121.3,36.3-149,93.3c-69.9-59.2-174.5-50.6-233.7,19.3c-6.6,7.8-12.6,16.3-17.6,25.2c-26.8-11.6-55.8-17.6-85-17.5c-118.2,0-214.1,95.8-214.1,214.1c0,0.5,0,0.9,0,1.4L1884.8,1757.5z"></path></g></g></svg>