<?xml version="1.0" encoding="utf-8"?>
<svg id="Home-Slide-3" image-rendering="auto" baseProfile="basic" version="1.1" x="0px" y="0px" width="280" height="259" xmlns="http://www.w3.org/2000/svg" xmlns:xlink="http://www.w3.org/1999/xlink">
  <defs>
    <g id="Symbol-9" overflow="visible">
      <path fill="#FFF" stroke="none" d="M78 0L0 0 0 60.2 78 60.2 78 0Z"/>
    </g>
  </defs>
  <g id="Scene-1" overflow="visible">
    <path fill="#D9D8D7" stroke="none" d="M113.65 195.7L75.9 195.7 73.6 216.1 116 216.1 113.65 195.7Z"/>
    <path fill="#FFF" stroke="none" d="M124.1 216.4Q123.6 216.05 123.1 216.05L66.5 216.05Q65.85 216.05 65.5 216.4 65.1 216.75 65.1 217.4L65.1 218.4 124.4 218.4 124.5 217.4Q124.5 216.8 124.1 216.4Z"/>
    <path fill="#FFF" stroke="none" d="M170.1 194.65Q171.1 193.65 171.1 192.3L171.1 182.15 18.45 182.15 18.45 192.3Q18.45 193.7 19.45 194.65 20.45 195.65 21.85 195.65L167.7 195.65Q169.1 195.65 170.1 194.65Z"/>
    <path fill="#232E38" stroke="none" d="M171.1 84.55Q171.1 83.25 170.1 82.15 169.1 81.15 167.7 81.15L21.85 81.15Q20.45 81.15 19.45 82.15 18.45 83.1 18.45 84.55L18.45 182.2 171.1 182.2 171.1 84.55Z"/>
    <path fill="#FFF" stroke="none" d="M163.4 174.55L163.4 88.7 26.1 88.7 26.1 174.55 163.4 174.55Z"/>
    <path fill="#F2F2F2" stroke="none" d="M135.1 92.05L29.35 92.05 29.35 171.2 135.1 171.2 135.1 92.05Z"/>
    <path fill="#D9D8D7" stroke="none" d="M160.1 97.55L160.1 92.05 29.35 92.05 29.35 97.55 160.1 97.55Z"/>
    <path fill="#D9D8D7" stroke="none" d="M42.95 101.8L29.3 101.8 29.3 171.2 42.95 171.2 42.95 101.8Z"/>
    <path fill="#FFF" stroke="none" d="M40.65 141.85L40.65 104.05 31.6 104.05 31.6 141.85 40.65 141.85Z"/>
    <path fill="#232E38" stroke="none" d="M42.95 97.55L29.3 97.55 29.3 101.7 42.95 101.7 42.95 97.55Z"/>
    <path fill="#CCCBCA" stroke="none" d="M135.05 97.55L54.1 97.55 54.1 101.7 135.05 101.7 135.05 97.55Z"/>
    <path fill="#D9D8D7" stroke="none" d="M160.05 101.8L135.05 101.8 135.05 131.6 160.05 131.6 160.05 101.8Z"/>
    <path fill="#FFF" stroke="none" d="M157.9 104.05L137.25 104.05 137.25 119.55 157.9 119.55 157.9 104.05Z"/>
    <path fill="#D9D8D7" stroke="none" d="M160.05 135.85L135.05 135.85 135.05 171.2 160.05 171.2 160.05 135.85Z"/>
    <path fill="#FFF" stroke="none" d="M157.9 138.1L137.25 138.1 137.25 163.6 157.9 163.6 157.9 138.1Z"/>
    <path fill="#232E38" stroke="none" d="M160.05 97.55L135.05 97.55 135.05 101.7 160.05 101.7 160.05 97.55Z"/>
    <path fill="#232E38" stroke="none" d="M160.05 131.6L135.05 131.6 135.05 135.8 160.05 135.8 160.05 131.6Z"/>
    <path fill="#D9D8D7" stroke="none" d="M156 140.05L139.2 140.05 139.2 141.35 156 141.35 156 140.05Z"/>
    <path fill="#D9D8D7" stroke="none" d="M156 142.9L139.2 142.9 139.2 144.2 156 144.2 156 142.9Z"/>
    <path fill="#D9D8D7" stroke="none" d="M156 105.9L139.2 105.9 139.2 107.2 156 107.2 156 105.9Z"/>
    <path fill="#D9D8D7" stroke="none" d="M156 108.8L139.2 108.8 139.2 110.15 156 110.15 156 108.8Z"/>
    <path fill="#D9D8D7" stroke="none" d="M156 111.7L139.2 111.7 139.2 113.05 156 113.05 156 111.7Z"/>
    <path fill="#CCCBCA" stroke="none" d="M135.15 101.8L129.95 101.8 129.95 171.2 135.15 171.2 135.15 101.8Z"/>
    <path fill="#FFF" stroke="none" d="M46.3 105.15L46.3 167.9 126.7 167.9 126.7 105.15 46.3 105.15Z"/>
    <path fill="#232E38" stroke="none" d="M40.75 154.05L40.75 147.9 34.65 147.9 34.65 154.05 40.75 154.05Z"/>
    <path fill="#FF9978" stroke="none" d="M37.65 144.85L31.6 144.85 31.6 150.95 37.65 150.95 37.65 144.85Z"/>
    <path fill="#D9D8D7" stroke="none" d="M38.1 106.65L34.1 106.65 34.1 110.65 38.1 110.65 38.1 106.65Z"/>
    <path fill="#D9D8D7" stroke="none" d="M38.1 113.15L34.1 113.15 34.1 117.15 38.1 117.15 38.1 113.15Z"/>
    <path fill="#D9D8D7" stroke="none" d="M38.1 119.7L34.1 119.7 34.1 123.7 38.1 123.7 38.1 119.7Z"/>
    <path fill="#FFD680" stroke="none" d="M156.65 186.35L130.65 186.35 130.65 205.35Q130.65 207.1 131.9 208.3 133.15 209.55 134.85 209.55L156.65 209.55 156.65 186.35Z"/>
    <path fill="#FFB959" stroke="none" d="M139.05 205.35Q139.05 207.1 137.8 208.3 136.65 209.5 134.95 209.55L156.65 209.55Q158.4 209.55 159.6 208.3 160.85 207.1 160.85 205.35L139.05 205.35Z"/>
    <path fill="#FFB959" stroke="none" d="M156.65 186.35L130.65 186.35 130.65 190.55 156.65 190.55 156.65 186.35Z"/>
    <path fill="#FFD680" stroke="none" d="M42.1 179.4L12.1 179.4 12.1 218.4 42.1 218.4 42.1 179.4Z"/>
    <path fill="#FFC86D" stroke="none" d="M42.1 179.4L27.1 179.4 27.1 218.4 42.1 218.4 42.1 179.4Z"/>
    <path fill="#FFB959" stroke="none" d="M42.1 179.4L34.6 179.4 34.6 218.4 42.1 218.4 42.1 179.4Z"/>
    <path fill="#FFC86D" stroke="none" d="M47.65 192.2Q48.45 193 48.45 194.2L48.45 203.8Q48.45 205 47.65 205.8 46.85 206.6 45.65 206.6L42.1 206.6 42.1 209.9 45.65 209.9Q48.35 209.9 49.95 208.15 51.75 206.5 51.75 203.85L51.75 194.2Q51.75 191.7 49.95 189.9 48.3 188.1 45.65 188.1L42.1 188.1 42.1 191.4 45.65 191.4Q46.85 191.4 47.65 192.2Z"/>
    <path fill="#ED6D47" stroke="none" d="M16.2 182.4L16.2 179.4 13.95 179.4 13.95 182.4Q13.95 182.9 14.3 183.2 14.6 183.55 15.1 183.55 15.55 183.55 15.9 183.2 16.2 182.9 16.2 182.4Z"/>
    <path fill="#ED6D47" stroke="none" d="M18.45 182.35L18.45 179.4 16.25 179.4 16.25 182.35Q16.260 181.940 16.6 181.65 16.9 181.3 17.35 181.3 17.8 181.3 18.15 181.65 18.440 181.940 18.45 182.35Z"/>
    <path fill="#ED6D47" stroke="none" d="M20.7 191.4L20.7 179.4 18.45 179.4 18.45 191.4Q18.45 191.9 18.8 192.2 19.1 192.55 19.6 192.55 20.05 192.55 20.4 192.2 20.7 191.9 20.7 191.4Z"/>
    <path fill="#ED6D47" stroke="none" d="M25.3 187.05L25.3 179.4 23.1 179.4 23.1 187.05Q23.1 187.5 23.45 187.85 23.75 188.15 24.2 188.15 24.65 188.15 25 187.85 25.3 187.5 25.3 187.05Z"/>
    <path fill="#ED6D47" stroke="none" d="M22.95 181.5L22.95 179.4 20.75 179.4 20.75 181.5Q20.760 181.040 21.1 180.75 21.4 180.4 21.85 180.4 22.3 180.4 22.65 180.75 22.940 181.040 22.95 181.5Z"/>
    <path fill="#FFF" stroke="none" d="M185.9 218.4Q186.7 217.05 186.7 215.4 186.7 212.2 183.7 209.95 180.7 207.7 176.4 207.7 172.15 207.7 169.1 210 166.1 212.25 166.1 215.4 166.1 217.05 166.9 218.4L185.9 218.4Z"/>
    <path fill="#E6E5E5" stroke="none" d="M166.15 216.6Q166.25 217.3 166.85 218.5L185.95 218.5Q186.55 217.3 186.65 216.6L166.15 216.6Z"/>
    <path fill="#474F59" stroke="none" d="M.7 218.4L.7 226.1 265.8 226.1 265.8 218.4 .7 218.4Z"/>
    <path fill="#232E38" stroke="none" d="M7.9 226.2L7.9 229.1 258.45 229.1 258.45 226.2 7.9 226.2Z"/>
    <path fill="#474F59" stroke="none" d="M276.3 164.55L273.45 162.55 240.35 209.8 243.2 211.8 276.3 164.55Z"/>
    <path fill="#474F59" stroke="none" d="M273.55 166.5L276.4 164.5 243.35 117.2 240.5 119.2 273.55 166.5Z"/>
    <path fill="#232E38" stroke="none" d="M277.55 161.1Q276.2 159.7 274.2 159.7 272.2 159.7 270.8 161.1 269.4 162.5 269.4 164.55 269.4 166.55 270.8 167.95 272.2 169.35 274.2 169.35 276.2 169.35 277.55 167.95 278.95 166.55 278.95 164.55 278.95 162.55 277.55 161.1Z"/>
    <path fill="#232E38" stroke="none" d="M254.4 218.4L254.4 215.55Q254.4 213.25 252.7 211.4 251 209.7 248.6 209.7L209.6 209.7Q207.3 209.7 205.45 211.4 203.75 213.2 203.75 215.55L203.75 218.4 254.4 218.4Z"/>
    <path fill="#232E38" stroke="none" d="M237.1 122.4Q238.85 123.4 240.7 122.9 242.6 122.45 243.6 120.7 244.6 118.95 244.1 117.1 243.6 115.2 241.9 114.2L231.1 107.9 226.25 116.1 237.1 122.4Z"/>
    <path fill="#232E38" stroke="none" d="M233.75 121.65L213.95 110.15 190.25 123.4 233.9 148.7 233.75 121.65Z"/>
    <path fill="#474F59" stroke="none" d="M219.7 100.25L214 110.15 233.8 121.65 239.5 111.75 219.7 100.25Z"/>
    <path fill="#232E38" stroke="none" d="M226.1 100.3L224.5 103.05 234.7 109 236.3 106.2 226.1 100.3Z"/>
    <path fill="#474F59" stroke="none" d="M202.25 36.5Q192.55 36.5 185.65 43.4 178.75 50.3 178.75 60 178.75 69.75 185.65 76.65 192.55 83.55 202.25 83.55 212 83.55 218.9 76.65 225.75 69.75 225.75 60 225.75 50.3 218.9 43.4 212 36.5 202.25 36.5Z"/>
    <path fill="#D9D8D7" stroke="none" d="M202.25 40.65Q194.25 40.65 188.55 46.3 182.9 52 182.9 60 182.9 68.05 188.55 73.75 194.2 79.4 202.25 79.4 210.3 79.4 216 73.75 221.65 68.05 221.65 60 221.65 51.95 216 46.3 210.3 40.65 202.25 40.65Z"/>
    <path fill="#FFF" stroke="none" d="M202.25 41.5Q194.6 41.5 189.2 46.95 183.75 52.35 183.75 60 183.75 67.7 189.2 73.1 194.6 78.55 202.25 78.55 209.95 78.55 215.35 73.1 220.75 67.7 220.75 60 220.75 52.35 215.35 46.95 209.95 41.5 202.25 41.5Z"/>
    <path fill="#353F49" stroke="none" d="M201.75 43.15Q201.75 43.65 202.25 43.65 202.75 43.65 202.75 43.15 202.75 42.65 202.25 42.65 201.75 42.65 201.75 43.15Z"/>
    <path fill="#353F49" stroke="none" d="M194.2 45.2Q193.95 44.75 193.5 45 193.1 45.3 193.35 45.7 193.55 46.15 194 45.9 194.45 45.65 194.2 45.2Z"/>
    <path fill="#353F49" stroke="none" d="M187.8 51.1Q187.3 50.9 187.15 51.3 186.9 51.75 187.3 52 187.75 52.25 188 51.8 188.25 51.4 187.8 51.1Z"/>
    <path fill="#353F49" stroke="none" d="M185.9 60Q185.9 59.5 185.4 59.5 184.9 59.5 184.9 60 184.9 60.5 185.4 60.5 185.9 60.5 185.9 60Z"/>
    <path fill="#353F49" stroke="none" d="M188.15 68.3Q187.9 67.85 187.45 68.1 187 68.4 187.25 68.8 187.55 69.2 187.95 68.95 188.35 68.7 188.15 68.3Z"/>
    <path fill="#353F49" stroke="none" d="M194.05 74.25Q193.65 74 193.35 74.45 193.15 74.85 193.55 75.1 193.95 75.35 194.25 74.95 194.5 74.55 194.05 74.25Z"/>
    <path fill="#353F49" stroke="none" d="M201.75 76.9Q201.75 77.4 202.25 77.4 202.75 77.4 202.75 76.9 202.75 76.4 202.25 76.4 201.75 76.4 201.75 76.9Z"/>
    <path fill="#353F49" stroke="none" d="M210.9 74.15Q210.7 74.1 210.55 74.2 210.1 74.4 210.35 74.85 210.65 75.3 211.05 75.05 211.45 74.75 211.2 74.35 211.15 74.15 210.9 74.15Z"/>
    <path fill="#353F49" stroke="none" d="M217.15 68Q216.7 67.75 216.5 68.2 216.25 68.6 216.65 68.9 217.1 69.15 217.35 68.7 217.6 68.3 217.15 68Z"/>
    <path fill="#353F49" stroke="none" d="M219.65 60Q219.65 59.5 219.15 59.5 218.65 59.5 218.65 60 218.65 60.5 219.15 60.5 219.65 60.5 219.65 60Z"/>
    <path fill="#353F49" stroke="none" d="M217.35 51.25Q217.1 50.85 216.65 51.05 216.25 51.35 216.5 51.75 216.8 52.25 217.15 51.95 217.6 51.7 217.35 51.25Z"/>
    <path fill="#353F49" stroke="none" d="M210.45 45.85Q210.95 46 211.15 45.65 211.25 45.25 210.95 44.95 210.45 44.8 210.25 45.15 210.1 45.65 210.45 45.85Z"/>
    <g id="LIGHT" transform="translate(153.25 123.6)" display="none">
      <path fill="#FFD923" stroke="none" d="M69.45 95L80.35 25.3 37.2 0 -80.3 95 69.45 95Z"/>
      <animate attributeName="display" repeatCount="indefinite" dur="10s" keyTimes="0;.25;.642;1" values="none;inline;none;none"/>
    </g>
    <path fill="#3B404A" stroke="none" d="M200.8 61.6Q201.4 62.25 202.3 62.25 203.25 62.25 203.85 61.6 204.5 61 204.5 60.05 204.5 59.15 203.85 58.5 203.25 57.85 202.3 57.85 201.4 57.85 200.8 58.5 200.15 59.15 200.15 60.05 200.15 61 200.8 61.6Z"/>
    <g id="MINUTS" transform="translate(202.25 59.85)">
      <g id="Symbol-16">
        <animateTransform attributeName="transform" additive="replace" type="translate" dur="2.083s" keyTimes="0;1" values="0,0;0,0" fill="freeze"/>
        <animateTransform attributeName="transform" additive="sum" type="translate" repeatCount="indefinite" dur="2.083s" keyTimes="0;.02;.04;.06;.08;.1;.12;.14;.16;.18;.2;.22;.24;.26;.28;.3;.32;.34;.36;.38;.4;.42;.44;.46;.48;.5;.52;.54;.559;.55999;.56;1" values=".05,.15;.08,.161;.059,.17;.036,.176;.014,.179;-.009,.179;.088,.226;.065,.229;.092,.23;.049,.182;.047,.222;.058,.157;.052,.151;.036,.24;.079,.186;.052,.224;.037,.21;.09,.084;-.004,.191;-.008,.177;.031,.135;.057,.11;-.029,.121;.031,.102;.094,.097;.003,.197;.109,.211;.066,.203;.027,.183;.104,.166;0;0"/>
        <animateTransform attributeName="transform" additive="sum" type="translate" repeatCount="indefinite" dur="2.083s" keyTimes="0;.55999;.56;.58;.6;.62;.64;.66;.68;.7;.72;.74;.76;.78;.8;.82;.84;.86;.88;.9;.92;.94;.96;.98;1" values="0;0;.027,.183;.104,.166;.065,.124;.074,.133;.082,.143;.106,.175;.061,.163;.096,.117;.104,.19;.001,.102;-.001,.108;.032,.176;.021,.186;.121,.203;.106,.174;.054,.157;.089,.17;.03,.155;.029,.204;.111,.229;.025,.198;.05,.15;.05,.15"/>
        <animateTransform attributeName="transform" additive="sum" type="rotate" repeatCount="indefinite" dur="2.083s" keyTimes="0;.02;.04;.06;.08;.1;.12;.14;.16;.18;.2;.22;.24;.26;.28;.3;.32;.34;.36;.38;.4;.42;.44;.46;.48;.5;.52;.54;.559;.55999;.56;1" values="0,0,0;7.276,0,0;14.559,0,0;22.037,0,0;29.328,0,0;36.625,0,0;44.112,0,0;51.407,0,0;58.892,0,0;66.187,0,0;73.475,0,0;80.948,0,0;88.228,0,0;95.504,0,0;102.785,0,0;110.072,0,0;117.553,0,0;124.846,0,0;132.144,0,0;139.632,0,0;146.927,0,0;154.41,0,0;161.702,0,0;168.986,0,0;176.454,0,0;183.543,0,0;191.012,0,0;198.296,0,0;205.587,0,0;213.071,0,0;0;0"/>
        <animateTransform attributeName="transform" additive="sum" type="rotate" repeatCount="indefinite" dur="2.083s" keyTimes="0;.55999;.56;.58;.6;.62;.64;.66;.68;.7;.72;.74;.76;.78;.8;.82;.84;.86;.88;.9;.92;.94;.96;.98;1" values="0;0;205.587,0,0;213.071,0,0;220.366,0,0;227.75,0,0;235.152,0,0;242.445,0,0;249.925,0,0;257.214,0,0;264.493,0,0;271.77,0,0;279.05,0,0;286.523,0,0;293.811,0,0;301.105,0,0;308.59,0,0;315.886,0,0;323.374,0,0;330.67,0,0;337.961,0,0;345.438,0,0;352.722,0,0;360,0,0;360,0,0"/>
        <animateTransform attributeName="transform" additive="sum" type="scale" repeatCount="indefinite" dur="2.083s" keyTimes="0;.02;.04;.06;.08;.16;.18;.2;.22;.24;.26;.28;.3;.32;.42;.44;.46;.48;.5;.52;.54;.559;.55999;.56;1" values="1,1;1,.999;.998,.998;.998,.998;.997,.997;.997,.997;.998,.998;.998,.998;1,.999;1,1;1,.999;1,.999;.998,.998;.997,.997;.997,.997;.998,.998;1,.999;1,1;1,1;1,.999;.998,.998;.997,.997;.997,.997;1;1"/>
        <animateTransform attributeName="transform" additive="sum" type="scale" repeatCount="indefinite" dur="2.083s" keyTimes="0;.55999;.56;.6;.62;.64;.66;.68;.7;.72;.74;.76;.78;.8;.82;.9;.92;.94;.96;.98;1" values="1;1;.997,.997;.997,.997;.998,.998;.997,.997;.997,.997;.998,.998;1,.999;1,.999;1,1;1,.999;.998,.998;.998,.998;.997,.997;.997,.997;.998,.998;.998,.998;1,.999;1,1;1,1"/>
        <animateTransform attributeName="transform" additive="sum" type="translate" repeatCount="indefinite" dur="2.083s" keyTimes="0;.02;.1;.12;.16;.18;.2;.22;.24;.26;.28;.3;.32;.34;.36;.38;.4;.42;.44;.46;.48;.5;.52;.54;.559;.55999;.56;1" values="-.05,-.15;-.1,-.15;-.1,-.15;-.15,-.1;-.15,-.1;-.1,-.1;-.15,-.1;-.05,-.05;-.05,-.05;-.15,-.1;-.1,-.05;-.15,-.05;-.15,-.05;-.05,-.1;-.1,-.05;-.1,-.05;-.05,-.05;0,-.1;-.05,-.1;0,-.1;.05,-.1;-.05,-.05;.05,-.05;0,-.05;-.05,-.05;0,-.1;0;0"/>
        <animateTransform attributeName="transform" additive="sum" type="translate" repeatCount="indefinite" dur="2.083s" keyTimes="0;.55999;.56;.58;.64;.66;.68;.7;.72;.74;.76;.78;.8;.82;.84;.86;.88;.9;.92;.94;.96;.98;1" values="0;0;-.05,-.05;0,-.1;0,-.1;.05,-.15;.05,-.1;0,-.15;.05,-.1;-.05,-.05;0,-.05;.05,-.1;.05,-.1;0,-.2;0,-.2;0,-.15;0,-.15;.05,-.15;.05,-.2;-.05,-.25;0,-.2;-.05,-.15;-.05,-.15"/>
        <path id="Layer96_0_1_STROKES" stroke="#3B404A" stroke-width="1" stroke-linejoin="round" stroke-linecap="round" fill="none" d="M0 0L0 13.9"/>
      </g>
    </g>
    <g id="MIN" transform="translate(199.75 62.55)">
      <g id="Symbol-15" transform="translate(0 -9.2)">
        <animateTransform attributeName="transform" additive="replace" type="translate" dur="5.042s" keyTimes="0;1" values="0,0;0,0" fill="freeze"/>
        <animateTransform attributeName="transform" additive="sum" type="translate" repeatCount="indefinite" dur="5.042s" keyTimes="0;.008;.017;.025;.033;.041;.05;.058;.066;.074;.083;.091;.099;.107;.116;.124;.132;.14;.149;.157;.165;.174;.182;.19;.198;.207;.215;.223;.23;.23099;.231;1" values="2.55,-2.55;2.553,-2.577;2.578,-2.627;2.486,-2.544;2.612,-2.61;2.527,-2.536;2.549,-2.589;2.616,-2.672;2.608,-2.618;2.527,-2.544;2.584,-2.592;2.589,-2.625;2.54,-2.588;2.614,-2.66;2.541,-2.616;2.551,-2.566;2.546,-2.505;2.608,-2.513;2.553,-2.525;2.612,-2.554;2.602,-2.511;2.543,-2.603;2.617,-2.571;2.635,-2.54;2.534,-2.548;2.564,-2.548;2.66,-2.606;2.567,-2.557;2.589,-2.55;2.64,-2.564;0;0"/>
        <animateTransform attributeName="transform" additive="sum" type="translate" repeatCount="indefinite" dur="5.042s" keyTimes="0;.23099;.231;.24;.248;.256;.264;.273;.281;.289;.298;.306;.314;.322;.331;.339;.347;.355;.364;.372;.38;.388;.397;.405;.413;.421;.43;.438;.445;.44599;.446;1" values="0;0;2.589,-2.55;2.64,-2.564;2.55,-2.599;2.582,-2.547;2.637,-2.572;2.552,-2.564;2.581,-2.496;2.555,-2.566;2.62,-2.546;2.679,-2.542;2.658,-2.484;2.567,-2.517;2.635,-2.491;2.652,-2.453;2.557,-2.533;2.663,-2.47;2.649,-2.546;2.566,-2.528;2.505,-2.554;2.513,-2.492;2.595,-2.536;2.512,-2.461;2.579,-2.479;2.575,-2.497;2.531,-2.506;2.522,-2.511;2.501,-2.5;2.561,-2.487;0;0"/>
        <animateTransform attributeName="transform" additive="sum" type="translate" repeatCount="indefinite" dur="5.042s" keyTimes="0;.44599;.446;.455;.463;.471;.479;.488;.496;.504;.512;.521;.529;.537;.545;.554;.562;.57;.578;.587;.595;.603;.612;.62;.628;.636;.645;.653;.66;.66099;.661;1" values="0;0;2.501,-2.5;2.561,-2.487;2.564,-2.495;2.565,-2.483;2.531,-2.548;2.614,-2.464;2.55,-2.55;2.499,-2.571;2.572,-2.463;2.556,-2.499;2.545,-2.508;2.558,-2.503;2.546,-2.48;2.513,-2.485;2.549,-2.467;2.588,-2.527;2.554,-2.474;2.522,-2.463;2.53,-2.523;2.494,-2.416;2.546,-2.451;2.549,-2.534;2.554,-2.595;2.492,-2.587;2.536,-2.505;2.461,-2.588;2.504,-2.478;2.519,-2.48;0;0"/>
        <animateTransform attributeName="transform" additive="sum" type="translate" repeatCount="indefinite" dur="5.042s" keyTimes="0;.66099;.661;.669;.678;.686;.694;.702;.711;.719;.727;.735;.744;.752;.76;.769;.777;.785;.793;.802;.81;.818;.826;.835;.843;.851;.859;.868;.875;.87599;.876;1" values="0;0;2.504,-2.478;2.519,-2.48;2.442,-2.62;2.511,-2.578;2.56,-2.548;2.484,-2.494;2.446,-2.526;2.491,-2.486;2.506,-2.599;2.514,-2.489;2.55,-2.549;2.531,-2.653;2.477,-2.572;2.523,-2.542;2.489,-2.602;2.54,-2.574;2.478,-2.561;2.51,-2.642;2.503,-2.603;2.484,-2.545;2.527,-2.552;2.57,-2.629;2.491,-2.58;2.481,-2.646;2.471,-2.619;2.534,-2.572;2.599,-2.566;2.633,-2.66;0;0"/>
        <animateTransform attributeName="transform" additive="sum" type="translate" repeatCount="indefinite" dur="5.042s" keyTimes="0;.87599;.876;.884;.893;.901;.909;.917;.926;.934;.942;.95;.959;.967;.975;.983;.992;1" values="0;0;2.599,-2.566;2.633,-2.66;2.545,-2.543;2.603,-2.658;2.589,-2.552;2.542,-2.581;2.615,-2.678;2.668,-2.642;2.581,-2.613;2.539,-2.563;2.59,-2.641;2.542,-2.575;2.644,-2.599;2.588,-2.595;2.55,-2.55;2.55,-2.55"/>
        <animateTransform attributeName="transform" additive="sum" type="rotate" repeatCount="indefinite" dur="5.042s" keyTimes="0;.008;.017;.025;.033;.041;.05;.058;.066;.074;.083;.091;.099;.107;.116;.124;.132;.14;.149;.157;.165;.174;.182;.19;.198;.207;.215;.223;.23;.23099;.231;1" values="0,0,0;3,0,0;6,0,0;9,0,0;12,0,0;15,0,0;18,0,0;21,0,0;24,0,0;27.001,0,0;30,0,0;33,0,0;36,0,0;38.884,0,0;42,0,0;45,0,0;48,0,0;51,0,0;54,0,0;57,0,0;60,0,0;62.959,0,0;66,0,0;69,0,0;72,0,0;75,0,0;77.99,0,0;81,0,0;84,0,0;86.997,0,0;0;0"/>
        <animateTransform attributeName="transform" additive="sum" type="rotate" repeatCount="indefinite" dur="5.042s" keyTimes="0;.23099;.231;.24;.248;.256;.264;.273;.281;.289;.298;.306;.314;.322;.331;.339;.347;.355;.364;.372;.38;.388;.397;.405;.413;.421;.43;.438;.445;.44599;.446;1" values="0;0;84,0,0;86.997,0,0;90,0,0;93,0,0;96,0,0;99,0,0;102,0,0;104.823,0,0;108,0,0;111,0,0;114,0,0;117.001,0,0;120,0,0;123,0,0;125.875,0,0;129,0,0;132,0,0;135,0,0;138,0,0;141,0,0;144,0,0;147,0,0;150,0,0;152,0,0;155.966,0,0;159,0,0;162,0,0;165,0,0;0;0"/>
        <animateTransform attributeName="transform" additive="sum" type="rotate" repeatCount="indefinite" dur="5.042s" keyTimes="0;.44599;.446;.455;.463;.471;.479;.488;.496;.504;.512;.521;.529;.537;.545;.554;.562;.57;.578;.587;.595;.603;.612;.62;.628;.636;.645;.653;.66;.66099;.661;1" values="0;0;162,0,0;165,0,0;168,0,0;171,0,0;173.996,0,0;177,0,0;180,0,0;183,0,0;186,0,0;189,0,0;192,0,0;195,0,0;198,0,0;201,0,0;204,0,0;206.848,0,0;209.857,0,0;213,0,0;216,0,0;218.884,0,0;222,0,0;225,0,0;228,0,0;231,0,0;234,0,0;237,0,0;240,0,0;242,0,0;0;0"/>
        <animateTransform attributeName="transform" additive="sum" type="rotate" repeatCount="indefinite" dur="5.042s" keyTimes="0;.66099;.661;.669;.678;.686;.694;.702;.711;.719;.727;.735;.744;.752;.76;.769;.777;.785;.793;.802;.81;.818;.826;.835;.843;.851;.859;.868;.875;.87599;.876;1" values="0;0;240,0,0;242,0,0;246,0,0;249,0,0;251.98,0,0;254.985,0,0;258,0,0;261,0,0;264,0,0;267,0,0;270,0,0;273,0,0;276,0,0;279,0,0;282,0,0;285,0,0;288,0,0;291,0,0;294,0,0;297.001,0,0;300,0,0;302.865,0,0;306,0,0;309,0,0;311.893,0,0;315,0,0;318,0,0;321,0,0;0;0"/>
        <animateTransform attributeName="transform" additive="sum" type="rotate" repeatCount="indefinite" dur="5.042s" keyTimes="0;.87599;.876;.884;.893;.901;.909;.917;.926;.934;.942;.95;.959;.967;.975;.983;.992;1" values="0;0;318,0,0;321,0,0;324,0,0;327,0,0;330,0,0;332,0,0;336,0,0;339,0,0;342,0,0;345,0,0;347.99,0,0;351,0,0;354,0,0;356.997,0,0;360,0,0;360,0,0"/>
        <animateTransform attributeName="transform" additive="sum" type="scale" repeatCount="indefinite" dur="5.042s" keyTimes="0;.017;.025;.083;.091;.099;.107;.116;.124;.132;.157;.165;.174;.182;.223;.23;.23099;.231;1" values="1,1;1,1;1,.999;1,.999;.998,.998;.998,.998;.997,.997;.998,.998;1,1;.998,.998;.998,.998;1,.999;.997,.997;1,.999;1,.999;1,1;1,1;1;1"/>
        <animateTransform attributeName="transform" additive="sum" type="scale" repeatCount="indefinite" dur="5.042s" keyTimes="0;.23099;.231;.264;.273;.281;.289;.298;.331;.339;.347;.355;.364;.372;.38;.405;.413;.421;.43;.438;.445;.44599;.446;1" values="1;1;1,1;1,1;1,.999;1,.999;.998,.998;1,.999;1,.999;.998,.998;.997,.997;.998,.998;.998,.998;1,1;.998,.998;.998,.998;1,.999;1,.999;.998,.998;1,.999;1,.999;1,.999;1;1"/>
        <animateTransform attributeName="transform" additive="sum" type="scale" repeatCount="indefinite" dur="5.042s" keyTimes="0;.44599;.446;.479;.488;.512;.521;.562;.57;.578;.587;.595;.603;.612;.62;.628;.653;.66;.66099;.661;1" values="1;1;1,.999;1,.999;1,1;1,1;1,.999;1,.999;.997,.997;.997,.997;.998,.998;.998,.998;.997,.997;.998,.998;1,1;.998,.998;.998,.998;1,.999;1,.999;1;1"/>
        <animateTransform attributeName="transform" additive="sum" type="scale" repeatCount="indefinite" dur="5.042s" keyTimes="0;.66099;.661;.686;.694;.702;.711;.719;.727;.76;.769;.826;.835;.843;.851;.859;.868;.875;.87599;.876;1" values="1;1;1,.999;1,.999;.998,.998;.998,.998;1,.999;1,.999;1,1;1,1;1,.999;1,.999;.997,.997;.998,.998;.998,.998;.997,.997;1,1;.998,.998;.998,.998;1;1"/>
        <animateTransform attributeName="transform" additive="sum" type="scale" repeatCount="indefinite" dur="5.042s" keyTimes="0;.87599;.876;.901;.909;.967;.975;1" values="1;1;.998,.998;.998,.998;1,.999;1,.999;1,1;1,1"/>
        <animateTransform attributeName="transform" additive="sum" type="translate" repeatCount="indefinite" dur="5.042s" keyTimes="0;.008;.017;.025;.033;.041;.05;.058;.066;.074;.083;.091;.099;.107;.116;.124;.132;.14;.149;.157;.165;.174;.182;.19;.198;.207;.215;.223;.23;.23099;.231;1" values="-2.55,-6.65;-2.55,-6.55;-2.55,-6.5;-2.5,-6.6;-2.6,-6.5;-2.5,-6.6;-2.55,-6.55;-2.55,-6.45;-2.6,-6.55;-2.5,-6.6;-2.5,-6.6;-2.55,-6.55;-2.5,-6.55;-2.55,-6.5;-2.5,-6.55;-2.5,-6.6;-2.55,-6.6;-2.55,-6.55;-2.55,-6.6;-2.5,-6.55;-2.55,-6.6;-2.45,-6.55;-2.45,-6.5;-2.5,-6.5;-2.45,-6.55;-2.5,-6.6;-2.45,-6.5;-2.45,-6.55;-2.5,-6.55;-2.45,-6.5;0;0"/>
        <animateTransform attributeName="transform" additive="sum" type="translate" repeatCount="indefinite" dur="5.042s" keyTimes="0;.23099;.231;.24;.248;.256;.264;.273;.281;.289;.298;.306;.314;.322;.331;.339;.347;.355;.364;.372;.38;.388;.397;.405;.413;.421;.43;.438;.445;.44599;.446;1" values="0;0;-2.5,-6.55;-2.45,-6.5;-2.5,-6.6;-2.45,-6.55;-2.45,-6.5;-2.45,-6.6;-2.5,-6.55;-2.45,-6.6;-2.45,-6.55;-2.4,-6.5;-2.5,-6.55;-2.45,-6.6;-2.5,-6.55;-2.5,-6.55;-2.5,-6.6;-2.45,-6.5;-2.45,-6.55;-2.55,-6.55;-2.55,-6.6;-2.55,-6.55;-2.5,-6.55;-2.55,-6.55;-2.5,-6.55;-2.5,-6.5;-2.5,-6.5;-2.5,-6.55;-2.5,-6.55;-2.5,-6.55;0;0"/>
        <animateTransform attributeName="transform" additive="sum" type="translate" repeatCount="indefinite" dur="5.042s" keyTimes="0;.44599;.446;.463;.471;.479;.488;.496;.504;.512;.521;.554;.562;.595;.603;.612;.62;.628;.636;.645;.653;.66;.66099;.661;1" values="0;0;-2.5,-6.55;-2.5,-6.55;-2.45,-6.5;-2.5,-6.55;-2.4,-6.5;-2.55,-6.65;-2.5,-6.6;-2.45,-6.5;-2.45,-6.55;-2.45,-6.55;-2.45,-6.6;-2.45,-6.6;-2.45,-6.55;-2.45,-6.55;-2.5,-6.6;-2.55,-6.6;-2.55,-6.55;-2.5,-6.55;-2.55,-6.55;-2.45,-6.55;-2.45,-6.5;0;0"/>
        <animateTransform attributeName="transform" additive="sum" type="translate" repeatCount="indefinite" dur="5.042s" keyTimes="0;.66099;.661;.669;.678;.686;.694;.702;.711;.719;.727;.735;.744;.752;.76;.777;.785;.793;.802;.81;.818;.826;.835;.843;.851;.859;.868;.875;.87599;.876;1" values="0;0;-2.45,-6.55;-2.45,-6.5;-2.55,-6.5;-2.5,-6.55;-2.45,-6.55;-2.45,-6.5;-2.5,-6.5;-2.4,-6.5;-2.55,-6.55;-2.4,-6.55;-2.55,-6.65;-2.7,-6.55;-2.6,-6.55;-2.6,-6.55;-2.6,-6.6;-2.6,-6.5;-2.65,-6.5;-2.65,-6.55;-2.55,-6.55;-2.55,-6.65;-2.65,-6.55;-2.55,-6.55;-2.6,-6.5;-2.55,-6.5;-2.55,-6.55;-2.6,-6.55;-2.65,-6.5;0;0"/>
        <animateTransform attributeName="transform" additive="sum" type="translate" repeatCount="indefinite" dur="5.042s" keyTimes="0;.87599;.876;.884;.893;.901;.909;.917;.926;.934;.942;.95;.959;.967;.975;.983;.992;1" values="0;0;-2.6,-6.55;-2.65,-6.5;-2.55,-6.55;-2.6,-6.5;-2.55,-6.6;-2.55,-6.55;-2.6,-6.5;-2.65,-6.55;-2.55,-6.5;-2.5,-6.55;-2.6,-6.5;-2.5,-6.55;-2.6,-6.5;-2.55,-6.55;-2.55,-6.65;-2.55,-6.65"/>
        <path id="Layer95_0_1_STROKES" stroke="#3B404A" stroke-width="1" stroke-linejoin="round" stroke-linecap="round" fill="none" d="M0 9.2L9.25 0"/>
      </g>
    </g>
    <g id="SEC" transform="translate(205.25 63.05)">
      <g id="Symbol-14" transform="translate(-13.1 -13.1)">
        <animateTransform attributeName="transform" additive="replace" type="translate" dur="2.083s" keyTimes="0;1" values="0,0;0,0" fill="freeze"/>
        <animateTransform attributeName="transform" additive="sum" type="translate" repeatCount="indefinite" dur="2.083s" keyTimes="0;.02;.04;.06;.08;.1;.12;.14;.16;.18;.2;.22;.24;.26;.28;.3;.32;.34;.36;.38;.4;.42;.44;.46;.48;.5;.52;.54;.559;.55999;.56;1" values="-3,-3;-3.051,-3.026;-3.054,-3.02;-3.106,-3.05;-3.061,-2.993;-2.97,-3.064;-3.003,-3.105;-2.911,-3.06;-3.01,-3.045;-2.932,-3.052;-3.015,-3.03;-2.942,-3.011;-2.988,-3.099;-2.956,-3.061;-2.993,-3.04;-2.958,-3.015;-2.899,-2.995;-2.959,-3.069;-2.915,-3.025;-2.9,-2.941;-2.922,-2.955;-2.918,-3.019;-2.907,-2.996;-3,-2.878;-2.896,-3.017;-3.017,-2.895;-2.887,-2.96;-2.996,-2.907;-3.019,-2.918;-2.956,-2.923;0;0"/>
        <animateTransform attributeName="transform" additive="sum" type="translate" repeatCount="indefinite" dur="2.083s" keyTimes="0;.55999;.56;.58;.6;.62;.64;.66;.68;.7;.72;.74;.76;.78;.8;.82;.84;.86;.88;.9;.92;.94;.96;.98;1" values="0;0;-3.019,-2.918;-2.956,-2.923;-2.941,-2.9;-3.048,-2.962;-3.069,-2.959;-2.995,-2.9;-3.012,-2.941;-3.041,-2.993;-3.061,-2.956;-3.099,-2.988;-3.011,-2.942;-3.03,-3.015;-3.052,-2.932;-3.045,-3.01;-3.06,-2.912;-3.105,-3.004;-3.034,-2.98;-2.993,-3.061;-3.05,-3.106;-3.02,-3.054;-3.026,-3.052;-3,-3;-3,-3"/>
        <animateTransform attributeName="transform" additive="sum" type="rotate" repeatCount="indefinite" dur="2.083s" keyTimes="0;.02;.04;.06;.08;.1;.12;.14;.16;.18;.2;.22;.24;.26;.28;.3;.32;.34;.36;.38;.4;.42;.44;.46;.48;.5;.52;.54;.559;.55999;.56;1" values="0,0,0;7.276,0,0;14.559,0,0;22.037,0,0;29.328,0,0;36.625,0,0;44.112,0,0;51.407,0,0;58.892,0,0;66.187,0,0;73.475,0,0;80.948,0,0;88.228,0,0;95.504,0,0;102.785,0,0;110.072,0,0;117.553,0,0;124.846,0,0;132.144,0,0;139.632,0,0;146.927,0,0;154.41,0,0;161.702,0,0;168.986,0,0;176.454,0,0;183.543,0,0;191.012,0,0;198.296,0,0;205.587,0,0;213.071,0,0;0;0"/>
        <animateTransform attributeName="transform" additive="sum" type="rotate" repeatCount="indefinite" dur="2.083s" keyTimes="0;.55999;.56;.58;.6;.62;.64;.66;.68;.7;.72;.74;.76;.78;.8;.82;.84;.86;.88;.9;.92;.94;.96;.98;1" values="0;0;205.587,0,0;213.071,0,0;220.366,0,0;227.75,0,0;235.152,0,0;242.445,0,0;249.925,0,0;257.214,0,0;264.493,0,0;271.77,0,0;279.05,0,0;286.523,0,0;293.811,0,0;301.105,0,0;308.59,0,0;315.886,0,0;323.374,0,0;330.67,0,0;337.961,0,0;345.438,0,0;352.722,0,0;360,0,0;360,0,0"/>
        <animateTransform attributeName="transform" additive="sum" type="scale" repeatCount="indefinite" dur="2.083s" keyTimes="0;.02;.04;.06;.08;.16;.18;.2;.22;.24;.26;.28;.3;.32;.42;.44;.46;.48;.5;.52;.54;.559;.55999;.56;1" values="1,1;1,.999;.998,.998;.998,.998;.997,.997;.997,.997;.998,.998;.998,.998;1,.999;1,1;1,.999;1,.999;.998,.998;.997,.997;.997,.997;.998,.998;1,.999;1,1;1,1;1,.999;.998,.998;.997,.997;.997,.997;1;1"/>
        <animateTransform attributeName="transform" additive="sum" type="scale" repeatCount="indefinite" dur="2.083s" keyTimes="0;.55999;.56;.6;.62;.64;.66;.68;.7;.72;.74;.76;.78;.8;.82;.9;.92;.94;.96;.98;1" values="1;1;.997,.997;.997,.997;.998,.998;.997,.997;.997,.997;.998,.998;1,.999;1,.999;1,1;1,.999;.998,.998;.998,.998;.997,.997;.997,.997;.998,.998;.998,.998;1,.999;1,1;1,1"/>
        <animateTransform attributeName="transform" additive="sum" type="translate" repeatCount="indefinite" dur="2.083s" keyTimes="0;.02;.04;.06;.08;.1;.12;.14;.16;.18;.2;.22;.24;.26;.28;.3;.32;.34;.36;.38;.4;.42;.44;.46;.48;.5;.52;.54;.559;.55999;.56;1" values="-10.1,-10.1;-10,-10;-10.05,-10.05;-9.9,-10.05;-10,-10.15;-10,-10.05;-9.95,-10.05;-10,-10.05;-10.05,-10.05;-10.05,-10;-10.05,-10.05;-10.05,-10.05;-9.95,-10.05;-10,-10;-10,-10.1;-10.05,-10.05;-10,-10.05;-10,-10.1;-10,-10.05;-10,-10;-10,-10.05;-10.05,-10.05;-10,-10;-10.1,-9.95;-9.95,-10.1;-10.1,-9.95;-10,-10.05;-10,-10;-10.05,-10.05;-10.05,-10;0;0"/>
        <animateTransform attributeName="transform" additive="sum" type="translate" repeatCount="indefinite" dur="2.083s" keyTimes="0;.55999;.56;.58;.6;.62;.64;.66;.68;.7;.72;.74;.76;.78;.8;.82;.84;.86;.88;.9;.92;.94;.96;.98;1" values="0;0;-10.05,-10.05;-10.05,-10;-10,-10;-10.15,-10;-10.1,-10;-10.05,-10;-10.05,-10;-10.1,-10;-10,-10;-10.05,-9.95;-10.05,-10.05;-10.05,-10.05;-10,-10.05;-10.05,-10.05;-10.05,-10;-10.05,-9.95;-10.05,-10.05;-10.15,-10;-10.05,-9.9;-10.05,-10.05;-10,-10;-10.1,-10.1;-10.1,-10.1"/>
        <path id="Layer94_0_1_STROKES" stroke="#FF9978" stroke-width="1" stroke-linejoin="round" stroke-linecap="round" fill="none" d="M0 0L13.1 13.1"/>
      </g>
    </g>
    <g id="SCREEN" transform="translate(85.55 136.25)">
      <g display="none" id="Layer86_0_FILL">
        <path fill="#F1D782" stroke="none" d="M20.65 20.85L14.3 20.85 14.3 27.15 20.65 27.15 20.65 20.85Z"/>
        <animate attributeName="display" repeatCount="indefinite" dur="9.583s" keyTimes="0;.109;1" values="none;inline;inline"/>
      </g>
      <g display="none" id="Layer84_0_FILL">
        <path fill="#2B313A" stroke="none" d="M28.6 20.85L22.3 20.85 22.3 27.15 28.6 27.15 28.6 20.85Z"/>
        <animate attributeName="display" repeatCount="indefinite" dur="9.583s" keyTimes="0;.109;1" values="none;inline;inline"/>
      </g>
      <g display="none" id="Layer82_0_FILL">
        <path fill="#E59E79" stroke="none" d="M36.65 20.85L30.3 20.85 30.3 27.15 36.65 27.15 36.65 20.85Z"/>
        <animate attributeName="display" repeatCount="indefinite" dur="9.583s" keyTimes="0;.109;1" values="none;inline;inline"/>
      </g>
      <g display="none">
        <g id="Symbol-13" transform="translate(9.9 18.1)">
          <animateTransform attributeName="transform" additive="replace" type="translate" repeatCount="indefinite" dur="9.583s" keyTimes="0;.109;.113;.117;.122;.126;.13;.135;.139;.143;.148;.152;.157;.161;.165;.17;1" values="24.55,24.15;24.55,24.15;25.624,24.15;26.657,24.2;27.763,24.15;28.884,24.15;29.856,24.15;30.899,24.15;32.023,24.15;33.111,24.15;34.158,24.15;35.166,24.15;36.263,24.15;37.354,24.15;38.401,24.15;39.45,24.15;39.45,24.15"/>
          <animateTransform attributeName="transform" additive="sum" type="skewY" repeatCount="indefinite" dur="9.583s" keyTimes="0;.165;.17;1" values="0;0;180;180"/>
          <animateTransform attributeName="transform" additive="sum" type="scale" repeatCount="indefinite" dur="9.583s" keyTimes="0;.109;.113;.117;.122;.126;.13;.135;.139;.143;.148;.152;.157;.161;.165;.17;1" values="1,1;1,1;.927,1;.854,1;.781,1;.708,1;.636,1;.563,1;.49,1;.417,1;.344,1;.271,1;.198,1;.125,1;.052,1;.02,1;.02,1"/>
          <animateTransform attributeName="transform" additive="sum" type="scale" repeatCount="indefinite" dur="9.583s" keyTimes="0;.165;.167;.17;1" values="1,1;1,1;0,1;-1,1;-1,1" keySplines="0 0 1 1;0 0 1 1;.25 .5 .5 1;0 0 1 1" calcMode="spline"/>
          <animateTransform attributeName="transform" additive="sum" type="translate" repeatCount="indefinite" dur="9.583s" keyTimes="0;.109;.113;.117;.122;.13;.135;.139;.143;.148;.152;.157;.161;.165;.17;1" values="-14.65,-6.05;-14.65,-6.05;-14.75,-6.05;-14.7,-6.1;-14.8,-6.05;-14.8,-6.05;-14.75,-6.05;-14.85,-6.05;-14.9,-6.05;-14.85,-6.05;-15,-6.05;-14.95,-6.05;-15.6,-6.05;-16.25,-6.05;-12.2,-6.05;-12.2,-6.05"/>
          <path fill="#FFF" stroke="none" d="M29.3 0L0 0 0 12.1 29.3 12.1 29.3 0Z"/>
        </g>
        <animate attributeName="display" repeatCount="indefinite" dur="9.583s" keyTimes="0;.109;.174;1" values="none;inline;none;none"/>
      </g>
      <g display="none" id="Layer80_0_FILL">
        <path fill="#E59E79" stroke="none" d="M-29.8 17.9L-.45 17.9 -15.05 -7.55 -29.8 17.9Z"/>
        <animate attributeName="display" repeatCount="indefinite" dur="9.583s" keyTimes="0;.452;1" values="none;inline;inline"/>
      </g>
      <g display="none" id="Layer79_0_FILL">
        <path fill="#ECECEB" stroke="none" d="M-29.8 17.9L-.45 17.9 -15.05 -7.55 -29.8 17.9Z"/>
        <animate attributeName="display" repeatCount="indefinite" dur="9.583s" keyTimes="0;.174;.452;1" values="none;inline;none;none"/>
      </g>
      <g display="none">
        <g id="Symbol-12" transform="translate(-33.1 -8.3)">
          <animateTransform attributeName="transform" additive="replace" type="translate" repeatCount="indefinite" dur="9.583s" keyTimes="0;.174;.178;.183;.187;.191;.196;.2;.204;.209;.213;.217;.222;.226;.23;.235;1" values="-16,5.9;-16,5.9;-16,6.953;-16,7.871;-16,8.881;-16,9.928;-16,10.914;-16,11.907;-16,13.026;-16,14.009;-16,14.973;-16,16.003;-16,17.006;-16,17.953;-16,19;-16,20.05;-16,20.05"/>
          <animateTransform attributeName="transform" additive="sum" type="scale" repeatCount="indefinite" dur="9.583s" keyTimes="0;.174;.178;.183;.187;.191;.196;.2;.204;.209;.213;.217;.222;.226;.23;.235;1" values="1,1;1,1;1,.93;1,.859;1,.789;1,.718;1,.648;1,.577;1,.507;1,.437;1,.366;1,.296;1,.225;1,.155;1,.084;1,.014;1,.014"/>
          <animateTransform attributeName="transform" additive="sum" type="translate" repeatCount="indefinite" dur="9.583s" keyTimes="0;.174;.178;.183;.187;.191;.196;.2;.204;.209;.213;.217;.222;.226;.23;.235;1" values="-17.1,-14.2;-17.1,-14.2;-17.05,-14.15;-17.1,-14.05;-17.1,-14.05;-17.1,-14.1;-17.1,-14.3;-17.1,-14.3;-17.1,-14.45;-17.1,-14.45;-17.1,-14.4;-17.1,-14.55;-17.1,-14.45;-17.1,-14.55;-17.1,-14.8;-17.1,-21.4;-17.1,-21.4"/>
          <path fill="#FFF" stroke="none" d="M34.2 0L0 0 0 28.45 34.2 28.45 34.2 0Z"/>
        </g>
        <animate attributeName="display" repeatCount="indefinite" dur="9.583s" keyTimes="0;.174;.239;1" values="none;inline;none;none"/>
      </g>
      <g display="none" id="Layer77_0_FILL">
        <path fill="#F1D782" stroke="none" d="M15.5 -1.05L15.5 -21.95 -5.4 -21.95 -5.4 -1.05 15.5 -1.05Z"/>
        <animate attributeName="display" repeatCount="indefinite" dur="9.583s" keyTimes="0;.539;1" values="none;inline;inline"/>
      </g>
      <g display="none" id="Layer76_0_FILL">
        <path fill="#ECECEB" stroke="none" d="M15.5 -1.05L15.5 -21.95 -5.4 -21.95 -5.4 -1.05 15.5 -1.05Z"/>
        <animate attributeName="display" repeatCount="indefinite" dur="9.583s" keyTimes="0;.309;.539;1" values="none;inline;none;none"/>
      </g>
      <g display="none">
        <g id="Symbol-11" transform="translate(-7.9 -25.9)">
          <animateTransform attributeName="transform" additive="replace" type="translate" repeatCount="indefinite" dur="9.583s" keyTimes="0;.309;.313;.317;.322;.326;.33;.335;.339;.343;.348;.352;.357;.361;.365;.37;1" values="4.9,-11.9;4.9,-11.9;4.9,-12.833;4.9,-13.865;4.9,-14.926;4.9,-15.865;4.9,-16.826;4.9,-17.794;4.9,-18.852;4.9,-19.823;4.9,-20.764;4.9,-21.752;4.9,-22.756;4.9,-23.749;4.9,-24.699;4.9,-25.7;4.9,-25.7"/>
          <animateTransform attributeName="transform" additive="sum" type="scale" repeatCount="indefinite" dur="9.583s" keyTimes="0;.309;.313;.317;.322;.326;.33;.335;.339;.343;.348;.352;.357;.361;.365;.37;1" values="1,1;1,1;1,.93;1,.859;1,.789;1,.718;1,.648;1,.578;1,.507;1,.437;1,.366;1,.296;1,.225;1,.155;1,.085;1,.014;1,.014"/>
          <animateTransform attributeName="transform" additive="sum" type="translate" repeatCount="indefinite" dur="9.583s" keyTimes="0;.309;.313;.317;.322;.326;.33;.335;.339;.343;.348;.352;.357;.361;.365;.37;1" values="-12.8,-14;-12.8,-14;-12.8,-13.95;-12.8,-13.95;-12.8,-13.85;-12.8,-13.9;-12.8,-13.85;-12.8,-13.95;-12.8,-13.8;-12.8,-13.8;-12.8,-13.75;-12.8,-13.85;-12.75,-13.5;-12.8,-13.55;-12.8,-13;-12.8,-14;-12.8,-14"/>
          <path fill="#FFF" stroke="none" d="M25.6 0L0 0 0 28.05 25.6 28.05 25.6 0Z"/>
        </g>
        <animate attributeName="display" repeatCount="indefinite" dur="9.583s" keyTimes="0;.309;.374;1" values="none;inline;none;none"/>
      </g>
      <g display="none" id="Layer72_0_FILL">
        <path fill="#2B313A" stroke="none" d="M26.5 -7.9Q22.8 -11.65 17.55 -11.65 12.25 -11.65 8.55 -7.9 4.85 -4.2 4.85 1.05 4.85 6.35 8.55 10.05 12.25 13.75 17.55 13.75 22.8 13.75 26.5 10.05 30.2 6.35 30.2 1.05 30.2 -4.2 26.5 -7.9Z"/>
        <path fill="#FEFEFE" stroke="none" d="M17.55 -14.5Q11.1 -14.5 6.6 -9.9 2 -5.4 2 1.05L17.55 1.05 17.55 -14.5Z"/>
        <animate attributeName="display" repeatCount="indefinite" dur="9.583s" keyTimes="0;.626;1" values="none;inline;inline"/>
      </g>
      <g display="none" id="Layer70_0_FILL">
        <path fill="#ECECEB" stroke="none" d="M26.5 -7.9Q22.8 -11.65 17.55 -11.65 12.25 -11.65 8.55 -7.9 4.85 -4.2 4.85 1.05 4.85 6.35 8.55 10.05 12.25 13.75 17.55 13.75 22.8 13.75 26.5 10.05 30.2 6.35 30.2 1.05 30.2 -4.2 26.5 -7.9Z"/>
        <path fill="#FEFEFE" stroke="none" d="M17.55 -14.5Q11.1 -14.5 6.6 -9.9 2 -5.4 2 1.05L17.55 1.05 17.55 -14.5Z"/>
        <animate attributeName="display" repeatCount="indefinite" dur="9.583s" keyTimes="0;.239;.626;1" values="none;inline;none;none"/>
      </g>
      <g display="none">
        <g id="Symbol-10" transform="translate(-.75 -13.5)">
          <animateTransform attributeName="transform" additive="replace" type="translate" repeatCount="indefinite" dur="9.583s" keyTimes="0;.239;.243;.248;.252;.257;.261;.265;.27;.274;.278;.283;.287;.291;.296;.3;.304;1" values="15.3,.65;15.3,.65;16.41,.65;17.519,.65;18.579,.65;19.603,.65;20.749,.65;21.809,.65;22.843,.65;24.002,.65;25.059,.65;26.099,.65;27.247,.65;28.307,.65;29.353,.65;30.502,.65;31.501,.65;31.501,.65"/>
          <animateTransform attributeName="transform" additive="sum" type="skewY" repeatCount="indefinite" dur="9.583s" keyTimes="0;.3;.304;1" values="0;0;180;180"/>
          <animateTransform attributeName="transform" additive="sum" type="scale" repeatCount="indefinite" dur="9.583s" keyTimes="0;.239;.243;.248;.252;.257;.261;.265;.27;.274;.278;.283;.287;.291;.296;.3;.304;1" values="1,1;1,1;.932,1;.865,1;.797,1;.73,1;.662,1;.595,1;.527,1;.46,1;.393,1;.325,1;.258,1;.19,1;.123,1;.055,1;.012,1;.012,1"/>
          <animateTransform attributeName="transform" additive="sum" type="scale" repeatCount="indefinite" dur="9.583s" keyTimes="0;.3;.302;.304;1" values="1,1;1,1;0,1;-1,1;-1,1" keySplines="0 0 1 1;0 0 1 1;.25 .5 .5 1;0 0 1 1" calcMode="spline"/>
          <animateTransform attributeName="transform" additive="sum" type="translate" repeatCount="indefinite" dur="9.583s" keyTimes="0;.239;.243;.252;.257;.261;.265;.27;.274;.278;.283;.287;.291;.296;.3;.304;1" values="-16.05,-14.15;-16.05,-14.15;-16.15,-14.15;-16.15,-14.15;-16.1,-14.15;-16.15,-14.15;-16.15,-14.15;-16.1,-14.15;-16.2,-14.15;-16.2,-14.15;-16.15,-14.15;-16.3,-14.15;-16.35,-14.15;-16.35,-14.15;-17.3,-14.15;-16,-14.15;-16,-14.15"/>
          <path fill="#FFF" stroke="none" d="M32.1 0L0 0 0 28.3 32.1 28.3 32.1 0Z"/>
        </g>
        <animate attributeName="display" repeatCount="indefinite" dur="9.583s" keyTimes="0;.239;.309;1" values="none;inline;none;none"/>
      </g>
      <g display="none">
        <use xlink:href="#Symbol-9" transform="matrix(-.005 0 0 1 37.95 -30.1)">
          <animateTransform attributeName="transform" additive="replace" type="translate" repeatCount="indefinite" dur="9.583s" keyTimes="0;.909;.913;.917;.922;.926;.93;.935;.939;.944;.948;.952;.957;.961;.965;.97;.974;.978;.983;.987;.991;.996;1" values="37.8,0;37.8,0;36.553,-.01;35.155,-.02;33.8,-.03;32.51,-.04;31.099,-.05;29.799,-.01;28.466,-.02;27.058,-.03;25.752,-.04;24.397,-.05;23.019,-.01;21.716,-.02;20.331,-.03;18.991,-.04;17.696,-.05;16.265,-.01;14.96,-.02;13.65,-.03;12.25,-.04;10.894,-.05;10.894,-.05"/>
          <animateTransform attributeName="transform" additive="sum" type="skewY" repeatCount="indefinite" dur="9.583s" keyTimes="0;1" values="180;180"/>
          <animateTransform attributeName="transform" additive="sum" type="scale" repeatCount="indefinite" dur="9.583s" keyTimes="0;.909;.913;.917;.922;.926;.93;.935;.939;.944;.948;.952;.957;.961;.965;.97;.974;.978;.983;.987;.991;.996;1" values=".005,1;.005,1;.055,1;.104,1;.154,1;.204,1;.253,.998;.303,.998;.353,.998;.402,.997;.452,.997;.502,.997;.551,.996;.601,.996;.651,.996;.7,.995;.75,.995;.8,.995;.849,.994;.899,.994;.949,.994;1,.993;1,.993"/>
          <animateTransform attributeName="transform" additive="sum" type="scale" repeatCount="indefinite" dur="9.583s" keyTimes="0;1" values="-1,1;-1,1"/>
          <animateTransform attributeName="transform" additive="sum" type="translate" repeatCount="indefinite" dur="9.583s" keyTimes="0;.909;.913;.917;.922;.926;.93;.935;.939;.944;.948;.952;.957;.961;.965;.97;.974;.978;.983;.987;.991;.996;1" values="-29.35,-30.1;-29.35,-30.1;-29.15,-30.05;-29.15,-30.05;-29.2,-30.05;-29.15,-30.05;-29.4,-30;-29.2,-30.05;-29.15,-30.05;-29.3,-30.05;-29.3,-30.05;-29.3,-30;-29.25,-30.05;-29.25,-30.05;-29.3,-30.05;-29.35,-30.05;-29.2,-30;-29.3,-30.05;-29.3,-30.05;-29.25,-30.05;-29.3,-30.05;-29.35,-30;-29.35,-30"/>
        </use>
        <animate attributeName="display" repeatCount="indefinite" dur="9.583s" keyTimes="0;.909;1" values="none;inline;inline"/>
      </g>
      <g>
        <use xlink:href="#Symbol-9" transform="translate(-38.5 -30.1)">
          <animateTransform attributeName="transform" additive="replace" type="translate" repeatCount="indefinite" dur="9.583s" keyTimes="0;.004;.009;.013;.017;.022;.026;.03;.035;.039;.043;.048;.052;.057;.061;.065;.07;.074;.078;.083;.087;.091;.096;.1;.104;1" values=".5,0;2.119,0;3.741,-.05;5.406,0;6.983,0;8.664,0;10.237,0;11.895,0;13.566,0;15.125,0;16.829,0;18.375,0;20.099,0;21.757,0;23.315,0;25.011,0;26.615,0;28.254,0;29.85,0;31.448,0;33.154,0;34.754,-.05;36.402,0;38.002,0;39.65,0;39.65,0"/>
          <animateTransform attributeName="transform" additive="sum" type="skewY" repeatCount="indefinite" dur="9.583s" keyTimes="0;.1;.104;1" values="0;0;180;180"/>
          <animateTransform attributeName="transform" additive="sum" type="scale" repeatCount="indefinite" dur="9.583s" keyTimes="0;.004;.009;.013;.017;.022;.026;.03;.035;.039;.043;.048;.052;.057;.061;.065;.07;.074;.078;.083;.087;.091;.096;.1;.104;1" values="1,1;.958,1;.916,1;.874,1;.832,1;.791,1;.749,1;.707,1;.665,1;.623,1;.581,1;.539,1;.497,1;.456,1;.414,1;.372,1;.33,1;.288,1;.246,1;.204,1;.162,1;.12,1;.079,1;.037,1;.005,1;.005,1"/>
          <animateTransform attributeName="transform" additive="sum" type="scale" repeatCount="indefinite" dur="9.583s" keyTimes="0;.1;.102;.104;1" values="1,1;1,1;0,1;-1,1;-1,1" keySplines="0 0 1 1;0 0 1 1;.25 .5 .5 1;0 0 1 1" calcMode="spline"/>
          <animateTransform attributeName="transform" additive="sum" type="translate" repeatCount="indefinite" dur="9.583s" keyTimes="0;.004;.009;.013;.017;.022;.026;.03;.035;.039;.043;.048;.052;.061;.065;.07;.074;.078;.083;.087;.091;.096;.1;.104;1" values="-39,-30.1;-38.95,-30.1;-38.9,-30.05;-38.95,-30.1;-38.9,-30.1;-38.85,-30.1;-38.85,-30.1;-38.9,-30.1;-38.9,-30.1;-38.8,-30.1;-38.85,-30.1;-38.8,-30.1;-39.2,-30.1;-39.2,-30.1;-39.3,-30.1;-39.3,-30.1;-39.25,-30.1;-39,-30.1;-39.4,-30.1;-39.75,-30.1;-39.45,-30.05;-40.1,-30.1;-40.9,-30.1;-29.35,-30.1;-29.35,-30.1"/>
        </use>
        <animate attributeName="display" repeatCount="indefinite" dur="9.583s" keyTimes="0;.109;1" values="inline;none;none"/>
      </g>
    </g>
  </g>
</svg>